# xmcd
#
# Track frame offsets: 
#        150
#        18555
#        41955
#        61971
#        79791
#        99290
#        119069
#        143507
#        167807
#        194817
#        213704
#        236549
#        258759
#        284814
#        305748
#
# Disc length: 4431 seconds
#
# Revision: 0
# Processed by: cddbd v1.5.2PL0 Copyright (c) Steve Scherf et al.
# Submitted via: ExactAudioCopyFreeDBPlugin 1.0
#
DISCID=e7114d0f
DTITLE=Teddy Pendergrass - The Music of Teddy Pendergrass:  The Box Se
DTITLE=t Series
DYEAR=2010
DGENRE=Soul
TTITLE0=You Can't Hide from Yourself
TTITLE1=Somebody Told Me
TTITLE2=The Whole Town's Laughing at Me
TTITLE3=I Don't Love You Anymore
TTITLE4=And if I Had
TTITLE5=The More I Get, the More I Want
TTITLE6=Close the Door
TTITLE7=Get Up, Get Down, Get Funky, Get Loose
TTITLE8=It Don't Hurt Now
TTITLE9=Life is a Song Worth Singing
TTITLE10=Only You
TTITLE11=When Somebody Loves You Back
TTITLE12=Come Go with Me
TTITLE13=Do Me
TTITLE14=Turn Off the Lights
EXTD=
EXTT0=
EXTT1=
EXTT2=
EXTT3=
EXTT4=
EXTT5=
EXTT6=
EXTT7=
EXTT8=
EXTT9=
EXTT10=
EXTT11=
EXTT12=
EXTT13=
EXTT14=
PLAYORDER=
